<?xml version="1.0" encoding="utf-8"?>
<svg viewBox="-549.2099 70.1938 384.3716 384.3716" xmlns="http://www.w3.org/2000/svg">
  <g style="" transform="matrix(0.8394261002540588, 0, 0, 0.8394261002540588, -703.4830322265623, 116.37822723388672)">
    <ellipse style="stroke: rgb(0, 0, 0); fill: rgb(255, 255, 255); stroke-width: 0px;" cx="412.733" cy="173.93" rx="228.949" ry="228.949"/>
    <g transform="matrix(1.899524, 0, 0, 1.899524, 231.499619, -518.372314)" style="">
      <ellipse style="stroke: rgb(0, 0, 0); stroke-width: 0px; fill: rgb(126, 126, 126);" cx="95.772" cy="341.684" rx="51.575" ry="51.575"/>
      <path fill="#1a73e8" d="M 117.052 270.209 C 110.088 267.993 102.491 266.727 94.736 266.727 C 72.42 266.727 52.321 276.856 38.868 292.841 L 73.37 321.804 L 117.052 270.209 Z" style=""/>
      <path fill="#ea4335" d="M 38.868 292.841 C 28.264 305.502 21.775 321.962 21.775 339.688 C 21.775 353.457 24.466 364.536 29.055 374.506 L 73.37 321.804 L 38.868 292.841 Z" style=""/>
      <path fill="#4285f4" d="M 94.894 311.833 C 110.404 311.833 122.907 324.336 122.907 339.846 C 122.907 346.651 120.375 352.982 116.26 357.888 C 116.26 357.888 138.259 331.616 159.784 306.135 C 150.921 289.042 135.569 276.064 117.052 270.209 L 73.37 321.804 C 78.593 315.789 86.19 311.833 94.894 311.833" style=""/>
      <path fill="#fbbc04" d="M 94.894 367.701 C 79.384 367.701 66.881 355.198 66.881 339.688 C 66.881 332.882 69.255 326.552 73.37 321.804 L 29.055 374.506 C 36.652 391.283 49.313 404.894 62.291 421.828 L 116.26 357.73 C 111.037 363.903 103.441 367.701 94.894 367.701" style=""/>
      <path fill="#34a853" d="M 115.311 439.554 C 139.684 401.412 168.014 384.161 168.014 339.846 C 168.014 327.659 165.006 316.264 159.784 306.135 L 62.291 421.828 C 66.406 427.209 70.679 433.382 74.794 439.712 C 89.671 462.661 85.557 476.272 95.053 476.272 C 104.549 476.272 100.434 462.503 115.311 439.554" style=""/>
      <path d="M 126.941 363.388 L 133.85 370.297 L 137.022 366.898 L 164.805 394.684 L 150.557 408.935 L 122.77 381.148 L 126.024 378.117 L 119.099 371.19 C 112.489 376.107 104.293 379.042 95.449 379.042 C 73.654 379.042 55.984 361.373 55.984 339.578 C 55.984 317.781 73.654 300.113 95.449 300.113 C 117.245 300.113 134.913 317.781 134.913 339.578 C 134.913 348.494 131.936 356.753 126.941 363.388 Z M 95.449 312.257 C 80.27 312.257 68.127 324.4 68.127 339.579 C 68.127 354.756 80.27 366.898 95.449 366.898 C 110.629 366.898 122.77 354.755 122.77 339.578 C 122.77 324.4 110.629 312.257 95.449 312.257 Z" style="fill: rgb(255, 255, 255);"/>
    </g>
  </g>
</svg>